<svg width="20" height="20" viewBox="0 0 20 20" fill="none" xmlns="http://www.w3.org/2000/svg">
<path d="M12.0333 15.875L13.3 17.1417L15.8333 14.6083" stroke="white" stroke-width="1.5" stroke-linecap="round" stroke-linejoin="round"/>
<path d="M10.1333 9.05835C10.05 9.05002 9.94996 9.05002 9.85829 9.05835C7.87496 8.99169 6.29996 7.36669 6.29996 5.36669C6.29162 3.32502 7.94996 1.66669 9.99162 1.66669C12.0333 1.66669 13.6916 3.32502 13.6916 5.36669C13.6916 7.36669 12.1083 8.99169 10.1333 9.05835Z" stroke="white" stroke-width="1.5" stroke-linecap="round" stroke-linejoin="round"/>
<path d="M9.9917 18.175C8.47503 18.175 6.9667 17.7917 5.8167 17.025C3.80003 15.675 3.80003 13.475 5.8167 12.1333C8.10837 10.6 11.8667 10.6 14.1584 12.1333" stroke="white" stroke-width="1.5" stroke-linecap="round" stroke-linejoin="round"/>
</svg>
