<svg width="37" height="37" viewBox="0 0 37 37" fill="none" xmlns="http://www.w3.org/2000/svg">
<circle cx="18.5" cy="18.5" r="18.25" fill="#FDECD8" stroke="#FFB156" stroke-width="0.5"/>
<circle cx="18.5" cy="18.5" r="15.25" fill="#FFB156" stroke="#FFB156" stroke-width="0.5"/>
<path d="M20.0827 16.8929V16.9173H20.1071H24.9286C25.5067 16.9173 25.9756 17.3861 25.9756 17.9643V19.0357C25.9756 19.6139 25.5067 20.0827 24.9286 20.0827H20.1071H20.0827V20.1071V24.9286C20.0827 25.5067 19.6139 25.9756 19.0357 25.9756H17.9643C17.3861 25.9756 16.9173 25.5067 16.9173 24.9286V20.1071V20.0827H16.8929H12.0714C11.4933 20.0827 11.0244 19.6139 11.0244 19.0357V17.9643C11.0244 17.3861 11.4933 16.9173 12.0714 16.9173H16.8929H16.9173V16.8929V12.0714C16.9173 11.4933 17.3861 11.0244 17.9643 11.0244H19.0357C19.6139 11.0244 20.0827 11.4933 20.0827 12.0714V16.8929Z" fill="white" stroke="#29B3A7" stroke-width="0.0488281"/>
</svg>
