<svg width="21" height="18" viewBox="0 0 21 18" fill="none" xmlns="http://www.w3.org/2000/svg">
<path d="M5.89077 10.106C5.71062 9.62461 5.61923 9.11452 5.62103 8.60049C5.62103 7.45916 6.07442 6.36459 6.88146 5.55755C7.6885 4.75051 8.78307 4.29712 9.9244 4.29712C10.4321 4.29771 10.9356 4.38906 11.4111 4.56686L10.4012 5.6082C10.2476 5.58364 10.0924 5.57106 9.93695 5.57057C9.12995 5.56888 8.35506 5.88657 7.7815 6.45426C7.20793 7.02195 6.88228 7.79352 6.87566 8.60049C6.87617 8.75597 6.88876 8.91117 6.9133 9.0647L5.89077 10.106Z" fill="#5D5D5D"/>
<path d="M0.182207 8.30564C2.29625 4.39747 6.00368 2.0325 10.1063 2.0325C11.2233 2.03512 12.3329 2.2151 13.3934 2.56572L12.3835 3.58197C11.6396 3.38971 10.8746 3.29067 10.1063 3.28713C6.57453 3.28713 3.36269 5.25689 1.44938 8.57538C2.15125 9.80655 3.08169 10.8924 4.19074 11.7747L3.29996 12.6655C2.01643 11.63 0.950438 10.3508 0.163388 8.90159L0.000285149 8.60047L0.182207 8.30564Z" fill="#5D5D5D"/>
<path d="M18.6382 0.934697L15.8404 3.73252C17.6088 4.87116 19.0542 6.44613 20.0371 8.30563L20.2002 8.60047L20.0371 8.90158C17.923 12.8097 14.2156 15.1747 10.113 15.1747C8.51168 15.1744 6.93116 14.812 5.48969 14.1146L2.35312 17.2511L1.25533 16.3102L17.5655 0L18.6382 0.934697ZM12.5219 7.051L8.35024 11.2226C8.82159 11.5144 9.3642 11.6707 9.91853 11.6743C10.3213 11.6743 10.7201 11.5947 11.092 11.44C11.4639 11.2853 11.8015 11.0585 12.0854 10.7729C12.3694 10.4872 12.594 10.1482 12.7464 9.77535C12.8988 9.40253 12.976 9.00324 12.9735 8.60047C12.9665 8.05255 12.8103 7.5169 12.5219 7.051ZM13.4315 6.1414C14.0184 6.96908 14.2935 7.97773 14.208 8.98877C14.1226 9.9998 13.6822 10.948 12.9647 11.6655C12.2472 12.3829 11.299 12.8234 10.288 12.9088C9.27697 12.9942 8.26832 12.7191 7.44064 12.1322L6.43694 13.1359C7.59886 13.6326 8.84937 13.8887 10.113 13.8887C13.6448 13.8887 16.8566 11.919 18.7699 8.60047C17.8517 6.97461 16.5293 5.61333 14.9308 4.64839L13.4315 6.1414Z" fill="#5D5D5D"/>
</svg>
