<svg width="23" height="19" viewBox="0 0 23 19" fill="none" xmlns="http://www.w3.org/2000/svg">
<path d="M22.3242 16.8086C22.4648 16.9258 22.5352 17.0664 22.5352 17.2305C22.5352 17.3711 22.4883 17.5 22.3945 17.6172L22.043 18.0391C21.9492 18.1797 21.8086 18.25 21.6211 18.25C21.4805 18.25 21.3633 18.2031 21.2695 18.1094L0.246094 1.69141C0.105469 1.57422 0.0351562 1.43359 0.0351562 1.26953C0.0351562 1.12891 0.0820312 1 0.175781 0.882812L0.527344 0.460938C0.621094 0.320312 0.761719 0.25 0.949219 0.25C1.08984 0.25 1.20703 0.296875 1.30078 0.390625L22.3242 16.8086ZM10.4766 5.38281C10.7344 5.33594 11.0039 5.3125 11.2852 5.3125C12.3398 5.3125 13.2422 5.6875 13.9922 6.4375C14.7656 7.16406 15.1758 8.05469 15.2227 9.10938L10.4766 5.38281ZM12.0938 13.1172C11.8359 13.1641 11.5664 13.1875 11.2852 13.1875C10.2305 13.1875 9.31641 12.8242 8.54297 12.0977C7.79297 11.3477 7.39453 10.4453 7.34766 9.39062L12.0938 13.1172ZM11.2852 4.1875C10.6523 4.1875 9.97266 4.26953 9.24609 4.43359L7.59375 3.16797C8.83594 2.72266 10.0664 2.5 11.2852 2.5C12.6914 2.5 14.0391 2.76953 15.3281 3.30859C16.6406 3.82422 17.8008 4.55078 18.8086 5.48828C19.8164 6.40234 20.6484 7.48047 21.3047 8.72266C21.375 8.88672 21.4102 9.0625 21.4102 9.25C21.4102 9.4375 21.375 9.61328 21.3047 9.77734C20.7891 10.7383 20.168 11.6172 19.4414 12.4141L18.1055 11.3594C18.7148 10.7266 19.2305 10.0234 19.6523 9.25C18.7852 7.67969 17.6016 6.44922 16.1016 5.55859C14.625 4.64453 13.0195 4.1875 11.2852 4.1875ZM11.2852 14.3125C11.918 14.3125 12.5977 14.2305 13.3242 14.0664L14.9766 15.332C13.7344 15.7773 12.5039 16 11.2852 16C9.15234 16 7.19531 15.4375 5.41406 14.3125C3.63281 13.1641 2.25 11.6523 1.26562 9.77734C1.19531 9.61328 1.16016 9.4375 1.16016 9.25C1.16016 9.0625 1.19531 8.88672 1.26562 8.72266C1.78125 7.76172 2.40234 6.88281 3.12891 6.08594L4.46484 7.14062C3.85547 7.77344 3.33984 8.47656 2.91797 9.25C3.78516 10.8203 4.95703 12.0625 6.43359 12.9766C7.93359 13.8672 9.55078 14.3125 11.2852 14.3125Z" fill="#D0D9E4"/>
</svg>
