<svg width="19" height="20" viewBox="0 0 19 20" fill="none" xmlns="http://www.w3.org/2000/svg">
<g clip-path="url(#clip0_55_364)">
<path d="M12.5926 17.5V15.8333C12.5926 14.9493 12.2609 14.1014 11.6705 13.4763C11.0801 12.8512 10.2794 12.5 9.44446 12.5H3.9352C3.10026 12.5 2.29951 12.8512 1.70912 13.4763C1.11873 14.1014 0.787048 14.9493 0.787048 15.8333V17.5" stroke="white" stroke-width="2" stroke-linecap="round" stroke-linejoin="round"/>
<path d="M6.68984 9.16667C8.42851 9.16667 9.83798 7.67428 9.83798 5.83333C9.83798 3.99238 8.42851 2.5 6.68984 2.5C4.95116 2.5 3.54169 3.99238 3.54169 5.83333C3.54169 7.67428 4.95116 9.16667 6.68984 9.16667Z" stroke="white" stroke-width="2" stroke-linecap="round" stroke-linejoin="round"/>
<path d="M13.3796 9.16667L14.9537 10.8333L18.1019 7.5" stroke="white" stroke-width="2" stroke-linecap="round" stroke-linejoin="round"/>
</g>
<defs>
<clipPath id="clip0_55_364">
<rect width="18.8889" height="20" fill="white"/>
</clipPath>
</defs>
</svg>
