<svg width="18" height="18" viewBox="0 0 18 18" fill="none" xmlns="http://www.w3.org/2000/svg">
<path d="M7.12498 12.75H5.24998V0.875C5.24998 0.70924 5.18413 0.550268 5.06692 0.433058C4.94971 0.315848 4.79074 0.25 4.62498 0.25H3.37498C3.20922 0.25 3.05025 0.315848 2.93304 0.433058C2.81583 0.550268 2.74998 0.70924 2.74998 0.875V12.75H0.874979C0.320682 12.75 0.0406037 13.4234 0.433963 13.8168L3.55896 17.5668C3.67616 17.6839 3.83507 17.7497 4.00076 17.7497C4.16645 17.7497 4.32536 17.6839 4.44256 17.5668L7.56756 13.8168C7.95896 13.4242 7.68045 12.75 7.12498 12.75ZM16.5 10.25H11.5C11.3342 10.25 11.1752 10.3158 11.058 10.4331C10.9408 10.5503 10.875 10.7092 10.875 10.875V12.125C10.875 12.2908 10.9408 12.4497 11.058 12.5669C11.1752 12.6842 11.3342 12.75 11.5 12.75H13.6875L11.2945 15.502C11.1626 15.6192 11.057 15.7631 10.9846 15.9242C10.9123 16.0852 10.875 16.2598 10.875 16.4363V17.125C10.875 17.2908 10.9408 17.4497 11.058 17.5669C11.1752 17.6842 11.3342 17.75 11.5 17.75H16.5C16.6657 17.75 16.8247 17.6842 16.9419 17.5669C17.0591 17.4497 17.125 17.2908 17.125 17.125V15.875C17.125 15.7092 17.0591 15.5503 16.9419 15.4331C16.8247 15.3158 16.6657 15.25 16.5 15.25H14.3125L16.7054 12.498C16.8374 12.3808 16.943 12.2369 17.0153 12.0758C17.0876 11.9148 17.125 11.7402 17.125 11.5637V10.875C17.125 10.7092 17.0591 10.5503 16.9419 10.4331C16.8247 10.3158 16.6657 10.25 16.5 10.25ZM17.7133 6.91484L15.398 0.664844C15.3547 0.543423 15.2748 0.438381 15.1694 0.364113C15.0641 0.289846 14.9383 0.249987 14.8094 0.25H13.1906C13.0617 0.249987 12.9359 0.289846 12.8305 0.364113C12.7251 0.438381 12.6453 0.543423 12.6019 0.664844L10.2867 6.91484C10.253 7.00914 10.2425 7.11014 10.256 7.20935C10.2695 7.30856 10.3067 7.40307 10.3643 7.48492C10.422 7.56678 10.4985 7.63358 10.5873 7.67971C10.6762 7.72584 10.7749 7.74995 10.875 7.75H11.8449C11.9771 7.75004 12.1059 7.70817 12.2128 7.6304C12.3197 7.55263 12.3992 7.44297 12.4398 7.31719L12.6125 6.8125H15.3859L15.5582 7.31719C15.5989 7.44323 15.6786 7.55307 15.7858 7.63086C15.8931 7.70866 16.0222 7.75037 16.1547 7.75H17.125C17.2251 7.74995 17.3237 7.72584 17.4126 7.67971C17.5015 7.63358 17.578 7.56678 17.6356 7.48492C17.6933 7.40307 17.7304 7.30856 17.7439 7.20935C17.7574 7.11014 17.7469 7.00914 17.7133 6.91484ZM13.3597 4.625L14 2.75L14.6402 4.625H13.3597Z" fill="white"/>
</svg>
