<svg width="20" height="27" viewBox="0 0 20 27" fill="none" xmlns="http://www.w3.org/2000/svg">
<path d="M16 11.2C16 9.82087 15.3679 8.49823 14.2426 7.52304C13.1174 6.54786 11.5913 6 10 6C8.4087 6 6.88258 6.54786 5.75736 7.52304C4.63214 8.49823 4 9.82087 4 11.2C4 17.2667 1 19 1 19H19C19 19 16 17.2667 16 11.2Z" stroke="white" stroke-width="2" stroke-linecap="round" stroke-linejoin="round"/>
<path d="M11.7295 24.25C11.5537 24.6288 11.3014 24.9433 10.9978 25.1619C10.6941 25.3805 10.3499 25.4956 9.99953 25.4956C9.64915 25.4956 9.30492 25.3805 9.0013 25.1619C8.69769 24.9433 8.44534 24.6288 8.26953 24.25" stroke="white" stroke-width="2" stroke-linecap="round" stroke-linejoin="round"/>
<circle cx="10" cy="2" r="2" fill="white"/>
</svg>
