<svg width="21" height="20" viewBox="0 0 21 20" fill="none" xmlns="http://www.w3.org/2000/svg">
<g clip-path="url(#clip0_55_368)">
<path d="M13.3889 17.5V15.8333C13.3889 14.9493 13.0377 14.1014 12.4125 13.4763C11.7874 12.8512 10.9396 12.5 10.0555 12.5H4.22219C3.33813 12.5 2.49029 12.8512 1.86517 13.4763C1.24004 14.1014 0.888855 14.9493 0.888855 15.8333V17.5" stroke="white" stroke-width="2" stroke-linecap="round" stroke-linejoin="round"/>
<path d="M7.13888 9.16667C8.97982 9.16667 10.4722 7.67428 10.4722 5.83333C10.4722 3.99238 8.97982 2.5 7.13888 2.5C5.29793 2.5 3.80554 3.99238 3.80554 5.83333C3.80554 7.67428 5.29793 9.16667 7.13888 9.16667Z" stroke="white" stroke-width="2" stroke-linecap="round" stroke-linejoin="round"/>
<path d="M15.0555 6.66667L19.2222 10.8333" stroke="white" stroke-width="2" stroke-linecap="round" stroke-linejoin="round"/>
<path d="M19.2222 6.66667L15.0555 10.8333" stroke="white" stroke-width="2" stroke-linecap="round" stroke-linejoin="round"/>
</g>
<defs>
<clipPath id="clip0_55_368">
<rect width="20" height="20" fill="white" transform="translate(0.055542)"/>
</clipPath>
</defs>
</svg>
