<svg width="20" height="20" viewBox="0 0 20 20" fill="none" xmlns="http://www.w3.org/2000/svg">
<g clip-path="url(#clip0_61_93)">
<path d="M0.833374 3.33333V8.33333H5.83337" stroke="white" stroke-width="2" stroke-linecap="round" stroke-linejoin="round"/>
<path d="M19.1666 16.6667V11.6667H14.1666" stroke="white" stroke-width="2" stroke-linecap="round" stroke-linejoin="round"/>
<path d="M17.075 7.5C16.6524 6.30565 15.9341 5.23783 14.9872 4.39618C14.0402 3.55452 12.8955 2.96647 11.6598 2.68688C10.4241 2.40729 9.13775 2.44528 7.92072 2.79731C6.70369 3.14934 5.59566 3.80392 4.70004 4.7L0.833374 8.33333M19.1667 11.6667L15.3 15.3C14.4044 16.1961 13.2964 16.8507 12.0794 17.2027C10.8623 17.5547 9.57596 17.5927 8.34028 17.3131C7.1046 17.0335 5.95987 16.4455 5.01293 15.6038C4.06599 14.7622 3.34768 13.6943 2.92504 12.5" stroke="white" stroke-width="2" stroke-linecap="round" stroke-linejoin="round"/>
</g>
<defs>
<clipPath id="clip0_61_93">
<rect width="20" height="20" fill="white"/>
</clipPath>
</defs>
</svg>
