<svg width="20" height="20" viewBox="0 0 20 20" fill="none" xmlns="http://www.w3.org/2000/svg">
<path d="M15.3417 15.075L12.9917 17.425" stroke="white" stroke-width="1.5" stroke-linecap="round" stroke-linejoin="round"/>
<path d="M15.3417 17.425L12.9917 15.075" stroke="white" stroke-width="1.5" stroke-linecap="round" stroke-linejoin="round"/>
<path d="M10.1334 9.05835C10.05 9.05002 9.95005 9.05002 9.85838 9.05835C7.87505 8.99169 6.30005 7.36669 6.30005 5.36669C6.30005 3.32502 7.95005 1.66669 10 1.66669C12.0417 1.66669 13.7 3.32502 13.7 5.36669C13.6917 7.36669 12.1167 8.99169 10.1334 9.05835Z" stroke="white" stroke-width="1.5" stroke-linecap="round" stroke-linejoin="round"/>
<path d="M10 18.175C8.48333 18.175 6.975 17.7917 5.825 17.025C3.80833 15.675 3.80833 13.475 5.825 12.1333C8.11667 10.6 11.875 10.6 14.1667 12.1333" stroke="white" stroke-width="1.5" stroke-linecap="round" stroke-linejoin="round"/>
</svg>
