<svg width="18" height="18" viewBox="0 0 18 18" fill="none" xmlns="http://www.w3.org/2000/svg">
<path d="M14.241 0.828344C14.1332 0.831106 14.02 0.844917 13.9095 0.872538L2.41931 3.89977C1.49125 4.14283 0.828354 4.99354 0.828354 5.95474V15.6772C0.828354 16.8401 1.78679 17.7985 2.94962 17.7985H15.6772C16.8401 17.7985 17.7985 16.8401 17.7985 15.6772V6.48506C17.7985 5.32223 16.8401 4.36379 15.6772 4.36379H6.21991L14.2631 2.24252V3.6567H15.6772V2.24252C15.6772 1.44705 15.0005 0.817296 14.241 0.828344ZM2.94962 5.77797H15.6772C16.0777 5.77797 16.3843 6.08456 16.3843 6.48506V15.6772C16.3843 16.0777 16.0777 16.3843 15.6772 16.3843H2.94962C2.54912 16.3843 2.24253 16.0777 2.24253 15.6772V6.48506C2.24253 6.08456 2.54912 5.77797 2.94962 5.77797ZM13.9095 10.0205C13.324 10.0205 12.8489 10.4956 12.8489 11.0811C12.8489 11.6667 13.324 12.1418 13.9095 12.1418C14.4951 12.1418 14.9701 11.6667 14.9701 11.0811C14.9701 10.4956 14.4951 10.0205 13.9095 10.0205Z" fill="#F2F2F2"/>
</svg>
