<svg width="20" height="20" viewBox="0 0 20 20" fill="none" xmlns="http://www.w3.org/2000/svg">
<path d="M7.50008 18.3333H12.5001C16.6667 18.3333 18.3334 16.6667 18.3334 12.5V7.5C18.3334 3.33333 16.6667 1.66666 12.5001 1.66666H7.50008C3.33341 1.66666 1.66675 3.33333 1.66675 7.5V12.5C1.66675 16.6667 3.33341 18.3333 7.50008 18.3333Z" stroke="white" stroke-width="1.5" stroke-linecap="round" stroke-linejoin="round"/>
<path d="M5.83325 6.875C6.66659 7.70833 8.02492 7.70833 8.86659 6.875" stroke="white" stroke-width="1.5" stroke-miterlimit="10" stroke-linecap="round" stroke-linejoin="round"/>
<path d="M11.1333 6.875C11.9666 7.70833 13.325 7.70833 14.1666 6.875" stroke="white" stroke-width="1.5" stroke-miterlimit="10" stroke-linecap="round" stroke-linejoin="round"/>
<path d="M7 10.8333H13C13.4167 10.8333 13.75 11.1667 13.75 11.5833C13.75 13.6583 12.075 15.3333 10 15.3333C7.925 15.3333 6.25 13.6583 6.25 11.5833C6.25 11.1667 6.58333 10.8333 7 10.8333Z" stroke="white" stroke-width="1.5" stroke-miterlimit="10" stroke-linecap="round" stroke-linejoin="round"/>
</svg>
