<svg width="62" height="78" viewBox="0 0 62 78" fill="none" xmlns="http://www.w3.org/2000/svg">
<path d="M51.7141 34.333V20.3141C51.7161 17.6471 51.1818 15.0059 50.1417 12.5414C49.1016 10.0768 47.5762 7.83727 45.6525 5.95074C43.7288 4.06421 41.4446 2.56764 38.9304 1.54658C36.4163 0.525525 33.7215 0 31 0C28.2785 0 25.5837 0.525525 23.0696 1.54658C20.5554 2.56764 18.2712 4.06421 16.3475 5.95074C14.4238 7.83727 12.8984 10.0768 11.8583 12.5414C10.8182 15.0059 10.2839 17.6471 10.2859 20.3141V34.333C7.51701 34.4552 4.90277 35.6188 2.987 37.5816C1.07122 39.5445 0.00137534 42.1555 0 44.8717V78H62V44.8717C61.9986 42.1555 60.9288 39.5445 59.013 37.5816C57.0972 35.6188 54.483 34.4552 51.7141 34.333ZM31 7.16193C34.5581 7.16599 37.9692 8.55302 40.4851 11.0187C43.001 13.4843 44.4162 16.8272 44.4201 20.3141V34.3086H17.58V20.3141C17.5839 16.8272 18.999 13.4843 21.5149 11.0187C24.0308 8.55302 27.4419 7.16599 31 7.16193Z" fill="white"/>
</svg>
