<svg width="20" height="20" viewBox="0 0 20 20" fill="none" xmlns="http://www.w3.org/2000/svg">
<path d="M18.3334 10V7.5C18.3334 3.33333 16.6667 1.66666 12.5001 1.66666H7.50008C3.33341 1.66666 1.66675 3.33333 1.66675 7.5V12.5C1.66675 16.6667 3.33341 18.3333 7.50008 18.3333H10.0001" stroke="white" stroke-width="1.5" stroke-linecap="round" stroke-linejoin="round"/>
<path d="M17.4667 14.8667L16.1084 15.325C15.7334 15.45 15.4334 15.7417 15.3084 16.125L14.8501 17.4833C14.4584 18.6583 12.8084 18.6333 12.4417 17.4583L10.9001 12.5C10.6001 11.5167 11.5084 10.6 12.4834 10.9083L17.4501 12.45C18.6167 12.8167 18.6334 14.475 17.4667 14.8667Z" stroke="white" stroke-width="1.5" stroke-linecap="round" stroke-linejoin="round"/>
</svg>
