<svg width="20" height="20" viewBox="0 0 20 20" fill="none" xmlns="http://www.w3.org/2000/svg">
<path d="M5.41022 1.875C5.08307 1.875 4.76081 1.99219 4.49225 2.20703L4.45319 2.22656L4.43366 2.24609L2.48053 4.25781L2.50006 4.27734C1.89704 4.83398 1.71149 5.6665 1.97272 6.38672C1.97516 6.3916 1.97028 6.40137 1.97272 6.40625C2.50251 7.92236 3.85749 10.8496 6.50397 13.4961C9.16022 16.1523 12.1265 17.4536 13.5938 18.0273H13.6133C14.3726 18.2812 15.1954 18.1006 15.7813 17.5977L17.754 15.625C18.2715 15.1074 18.2715 14.209 17.754 13.6914L15.2149 11.1523L15.1954 11.1133C14.6778 10.5957 13.7598 10.5957 13.2423 11.1133L11.9923 12.3633C11.5406 12.146 10.4639 11.5894 9.43366 10.6055C8.41071 9.62891 7.88825 8.50586 7.69538 8.06641L8.94538 6.81641C9.47028 6.2915 9.48004 5.41748 8.92585 4.90234L8.94538 4.88281L8.88678 4.82422L6.38678 2.24609L6.36725 2.22656L6.32819 2.20703C6.05964 1.99219 5.73737 1.875 5.41022 1.875ZM5.41022 3.125C5.45661 3.125 5.50299 3.14697 5.54694 3.18359L8.04694 5.74219L8.10553 5.80078C8.10065 5.7959 8.14215 5.86182 8.06647 5.9375L6.50397 7.5L6.211 7.77344L6.34772 8.16406C6.34772 8.16406 7.06549 10.0854 8.57428 11.5234L8.711 11.6406C10.1636 12.9663 11.8751 13.6914 11.8751 13.6914L12.2657 13.8672L14.1212 12.0117C14.2286 11.9043 14.209 11.9043 14.3165 12.0117L16.8751 14.5703C16.9825 14.6777 16.9825 14.6387 16.8751 14.7461L14.961 16.6602C14.6729 16.9067 14.3677 16.958 14.004 16.8359C12.588 16.2793 9.83649 15.0708 7.38288 12.6172C4.90973 10.144 3.61823 7.33887 3.1446 5.97656C3.04938 5.72266 3.11774 5.34668 3.33991 5.15625L3.37897 5.11719L5.2735 3.18359C5.31745 3.14697 5.36383 3.125 5.41022 3.125Z" fill="#303133" stroke="#303133" stroke-width="0.3"/>
</svg>
