<svg width="44" height="44" viewBox="0 0 44 44" fill="none" xmlns="http://www.w3.org/2000/svg">
<g opacity="0.2" filter="url(#filter0_d_75_27530)">
<circle cx="22" cy="19" r="16" fill="#1192F0"/>
</g>
<path d="M26.3555 11.5C26.2603 11.5024 26.1602 11.5147 26.0625 11.5391L15.9062 14.2148C15.0859 14.4297 14.5 15.1816 14.5 16.0313V24.625C14.5 25.6528 15.3472 26.5 16.375 26.5H27.625C28.6528 26.5 29.5 25.6528 29.5 24.625V16.5C29.5 15.4722 28.6528 14.625 27.625 14.625H19.2656L26.375 12.75V14H27.625V12.75C27.625 12.0469 27.0269 11.4902 26.3555 11.5ZM16.375 15.875H27.625C27.979 15.875 28.25 16.146 28.25 16.5V24.625C28.25 24.979 27.979 25.25 27.625 25.25H16.375C16.021 25.25 15.75 24.979 15.75 24.625V16.5C15.75 16.146 16.021 15.875 16.375 15.875ZM26.0625 19.625C25.5449 19.625 25.125 20.0449 25.125 20.5625C25.125 21.0801 25.5449 21.5 26.0625 21.5C26.5801 21.5 27 21.0801 27 20.5625C27 20.0449 26.5801 19.625 26.0625 19.625Z" fill="#1192F0"/>
<defs>
<filter id="filter0_d_75_27530" x="0" y="0" width="44" height="44" filterUnits="userSpaceOnUse" color-interpolation-filters="sRGB">
<feFlood flood-opacity="0" result="BackgroundImageFix"/>
<feColorMatrix in="SourceAlpha" type="matrix" values="0 0 0 0 0 0 0 0 0 0 0 0 0 0 0 0 0 0 127 0" result="hardAlpha"/>
<feOffset dy="3"/>
<feGaussianBlur stdDeviation="3"/>
<feColorMatrix type="matrix" values="0 0 0 0 0.0666667 0 0 0 0 0.572549 0 0 0 0 0.941176 0 0 0 0.5 0"/>
<feBlend mode="normal" in2="BackgroundImageFix" result="effect1_dropShadow_75_27530"/>
<feBlend mode="normal" in="SourceGraphic" in2="effect1_dropShadow_75_27530" result="shape"/>
</filter>
</defs>
</svg>
