<svg width="44" height="44" viewBox="0 0 44 44" fill="none" xmlns="http://www.w3.org/2000/svg">
<g opacity="0.2" filter="url(#filter0_d_75_27492)">
<circle cx="22" cy="19" r="16" fill="#4961FF"/>
</g>
<path d="M22.0016 10.6667C17.4089 10.6667 13.6683 14.4072 13.6683 19C13.6683 23.5928 17.4089 27.3333 22.0016 27.3333C22.3141 27.3333 22.6243 27.3162 22.9343 27.2812C23.4218 27.2262 23.753 26.7553 23.6471 26.277L23.6423 26.251C23.5489 25.8335 23.1517 25.5604 22.7276 25.6162C22.4867 25.6479 22.245 25.6667 22.0016 25.6667C18.3094 25.6667 15.335 22.6922 15.335 19C15.335 15.3078 18.3094 12.3333 22.0016 12.3333C23.2442 12.3333 24.3991 12.6751 25.3919 13.2643L24.6416 14.0146C24.3399 14.3163 24.5527 14.8333 24.9802 14.8333H28.1882C28.4523 14.8333 28.6667 14.619 28.6667 14.3548V11.1468C28.6667 10.7193 28.1497 10.5058 27.848 10.8083L26.598 12.0583C25.2788 11.1833 23.6991 10.6667 22.0016 10.6667ZM29.4317 19C29.0158 19 28.6679 19.3102 28.6179 19.7226C28.6154 19.7376 28.6146 19.7516 28.613 19.7666C28.5596 20.1816 28.8232 20.5707 29.2298 20.6715L29.2445 20.6748C29.7245 20.7915 30.2033 20.4649 30.265 19.9749C30.2667 19.9591 30.2682 19.9419 30.2699 19.9261C30.329 19.4336 29.9413 19 29.4463 19H29.4317ZM28.3802 22.1592C28.081 22.132 27.782 22.2719 27.612 22.54L27.599 22.5612C27.3748 22.912 27.4458 23.372 27.7666 23.637L27.7845 23.6517C28.167 23.9667 28.7426 23.8796 29.0085 23.4613C29.0143 23.4538 29.0198 23.4452 29.0248 23.4368C29.2856 23.0243 29.1302 22.4727 28.6943 22.2536L28.6748 22.2438C28.58 22.1961 28.48 22.1682 28.3802 22.1592ZM26.0967 24.5176C25.902 24.4842 25.6952 24.5202 25.5156 24.6331L25.5026 24.6413C25.1493 24.8621 25.0159 25.3079 25.1934 25.6862L25.2064 25.7155C25.4172 26.1638 25.9754 26.3312 26.3945 26.067C26.4004 26.0629 26.4082 26.0598 26.4141 26.0557C26.8266 25.7948 26.9216 25.2313 26.6224 24.8463L26.6029 24.8203C26.4729 24.6532 26.2914 24.5509 26.0967 24.5176Z" fill="#4961FF"/>
<defs>
<filter id="filter0_d_75_27492" x="0" y="0" width="44" height="44" filterUnits="userSpaceOnUse" color-interpolation-filters="sRGB">
<feFlood flood-opacity="0" result="BackgroundImageFix"/>
<feColorMatrix in="SourceAlpha" type="matrix" values="0 0 0 0 0 0 0 0 0 0 0 0 0 0 0 0 0 0 127 0" result="hardAlpha"/>
<feOffset dy="3"/>
<feGaussianBlur stdDeviation="3"/>
<feColorMatrix type="matrix" values="0 0 0 0 0.262745 0 0 0 0 0.345098 0 0 0 0 0.898039 0 0 0 0.4 0"/>
<feBlend mode="normal" in2="BackgroundImageFix" result="effect1_dropShadow_75_27492"/>
<feBlend mode="normal" in="SourceGraphic" in2="effect1_dropShadow_75_27492" result="shape"/>
</filter>
</defs>
</svg>
