<svg width="25" height="24" viewBox="0 0 25 24" fill="none" xmlns="http://www.w3.org/2000/svg">
<path d="M12.5 4.6499C7.71996 4.6499 3.82996 8.5399 3.82996 13.3199C3.82996 18.0999 7.71996 21.9999 12.5 21.9999C17.28 21.9999 21.17 18.1099 21.17 13.3299C21.17 8.5499 17.28 4.6499 12.5 4.6499ZM13.25 12.9999C13.25 13.4099 12.91 13.7499 12.5 13.7499C12.09 13.7499 11.75 13.4099 11.75 12.9999V7.9999C11.75 7.5899 12.09 7.2499 12.5 7.2499C12.91 7.2499 13.25 7.5899 13.25 7.9999V12.9999Z" fill="white"/>
<path d="M15.39 3.45H9.61001C9.21001 3.45 8.89001 3.13 8.89001 2.73C8.89001 2.33 9.21001 2 9.61001 2H15.39C15.79 2 16.11 2.32 16.11 2.72C16.11 3.12 15.79 3.45 15.39 3.45Z" fill="white"/>
</svg>
